<svg width="20" height="20" viewBox="0 0 20 20" fill="none" xmlns="http://www.w3.org/2000/svg">
<path d="M15.402 13.9721C14.263 14.2456 13.0739 14.2323 11.9413 13.9335C10.8086 13.6347 9.76778 13.0596 8.91191 12.2598C8.05605 11.46 7.4119 10.4604 7.03714 9.35061C6.66238 8.24077 6.56872 7.05531 6.76454 5.90039C6.73521 5.92964 6.70373 5.95666 6.67038 5.98122C6.43704 6.15872 6.14538 6.22456 5.56204 6.35622L5.03288 6.47622C2.98288 6.94039 1.95788 7.17206 1.71371 7.95622C1.47038 8.73956 2.16871 9.55706 3.56621 11.1912L3.92788 11.6137C4.32454 12.0779 4.52371 12.3104 4.61288 12.5971C4.70204 12.8846 4.67204 13.1946 4.61204 13.8137L4.55704 14.3779C4.34621 16.5587 4.24038 17.6487 4.87871 18.1329C5.51704 18.6171 6.47704 18.1762 8.39538 17.2921L8.89288 17.0637C9.43788 16.8121 9.71038 16.6871 9.99954 16.6871C10.2887 16.6871 10.5612 16.8121 11.107 17.0637L11.6029 17.2921C13.522 18.1754 14.482 18.6171 15.1195 18.1337C15.7587 17.6487 15.6529 16.5587 15.442 14.3779L15.402 13.9721Z" fill="#FDD400"/>
<path opacity="0.6" d="M7.62823 4.50602L7.35489 4.99602C7.05489 5.53435 6.90489 5.80352 6.67156 5.98102C6.70489 5.95602 6.73628 5.92907 6.76573 5.90018C6.56985 7.05519 6.66351 8.24074 7.03831 9.35067C7.4131 10.4606 8.05734 11.4602 8.91331 12.2601C9.76928 13.0599 10.8103 13.6349 11.943 13.9337C13.0758 14.2324 14.265 14.2455 15.4041 13.9718L15.3874 13.8135C15.3282 13.1943 15.2982 12.8843 15.3874 12.5968C15.4766 12.3102 15.6749 12.0777 16.0724 11.6135L16.4341 11.191C17.8316 9.55768 18.5299 8.74018 18.2857 7.95602C18.0424 7.17185 17.0174 6.93935 14.9674 6.47602L14.4374 6.35602C13.8549 6.22435 13.5632 6.15852 13.3291 5.98102C13.0957 5.80352 12.9457 5.53435 12.6457 4.99602L12.3732 4.50602C11.3174 2.61268 10.7899 1.66602 10.0007 1.66602C9.21156 1.66602 8.68406 2.61268 7.62823 4.50602Z" fill="#FDD400"/>
</svg>
